<svg width="50" height="45" viewBox="0 0 50 45" fill="none" xmlns="http://www.w3.org/2000/svg">
<path d="M17.5825 36.72C17.4631 36.9987 17.4717 37.3086 17.6062 37.5816C17.7408 37.8546 17.9904 38.0683 18.3 38.1757C18.6096 38.2832 18.954 38.2755 19.2573 38.1544C19.5607 38.0333 19.7981 37.8087 19.9175 37.53L32.4175 8.28C32.4766 8.14201 32.5049 7.9949 32.5008 7.84706C32.4968 7.69923 32.4604 7.55356 32.3937 7.41838C32.3271 7.2832 32.2316 7.16116 32.1125 7.05922C31.9935 6.95728 31.8533 6.87743 31.7 6.82425C31.5467 6.77106 31.3832 6.74557 31.219 6.74924C31.0547 6.75291 30.8928 6.78566 30.7426 6.84563C30.5924 6.90559 30.4568 6.99159 30.3436 7.09872C30.2303 7.20585 30.1416 7.33201 30.0825 7.47L17.5825 36.72V36.72ZM35.4375 31.23C35.3124 31.1339 35.2095 31.0166 35.1349 30.8847C35.0602 30.7528 35.0152 30.609 35.0024 30.4614C34.9897 30.3139 35.0094 30.1655 35.0604 30.0248C35.1115 29.8841 35.1929 29.7538 35.3 29.6415L42.1025 22.5L35.3025 15.3562C35.1016 15.1282 35.0066 14.839 35.0376 14.5493C35.0686 14.2596 35.2232 13.992 35.4688 13.8027C35.7144 13.6134 36.032 13.5171 36.3548 13.5341C36.6776 13.5511 36.9806 13.68 37.2 13.8937L44.7 21.7687C44.8937 21.9725 45.0001 22.2319 45.0001 22.5C45.0001 22.7681 44.8937 23.0275 44.7 23.2312L37.2 31.1062C36.9842 31.3327 36.6772 31.4727 36.3467 31.4955C36.0162 31.5183 35.6891 31.422 35.4375 31.2277V31.23ZM14.5625 12.645C14.6873 12.741 14.7898 12.8582 14.8642 12.9899C14.9386 13.1216 14.9835 13.2652 14.9963 13.4125C15.0091 13.5598 14.9895 13.7079 14.9386 13.8484C14.8878 13.9889 14.8067 14.119 14.7 14.2312L7.895 21.375L14.7 28.5165C14.8069 28.6288 14.8881 28.7589 14.9391 28.8994C14.9901 29.04 15.0098 29.1882 14.9972 29.3356C14.9845 29.483 14.9397 29.6267 14.8654 29.7585C14.791 29.8903 14.6885 30.0077 14.5637 30.1039C14.439 30.2001 14.2944 30.2732 14.1383 30.3191C13.9821 30.3649 13.8174 30.3827 13.6537 30.3713C13.4899 30.3599 13.3302 30.3196 13.1837 30.2527C13.0372 30.1858 12.9069 30.0935 12.8 29.9812L5.3 22.1062C5.10634 21.9025 4.99991 21.6431 4.99991 21.375C4.99991 21.1069 5.10634 20.8475 5.3 20.6437L12.8 12.7687C12.9067 12.6565 13.0369 12.5642 13.1832 12.4972C13.3296 12.4302 13.4891 12.3898 13.6528 12.3783C13.8164 12.3668 13.981 12.3845 14.1371 12.4302C14.2932 12.476 14.4377 12.549 14.5625 12.645V12.645Z" fill="#FDD95B" stroke="#FDD95B" stroke-width="0.4"/>
</svg>
