<svg width="25" height="25" viewBox="0 0 25 25" fill="none" xmlns="http://www.w3.org/2000/svg">
<path d="M11.175 10L14.7583 6.425C14.9152 6.26808 15.0034 6.05525 15.0034 5.83333C15.0034 5.61141 14.9152 5.39859 14.7583 5.24167C14.6014 5.08475 14.3886 4.99659 14.1667 4.99659C13.9447 4.99659 13.7319 5.08475 13.575 5.24167L9.99999 8.825L6.42499 5.24167C6.26807 5.08475 6.05525 4.99659 5.83333 4.99659C5.61141 4.99659 5.39858 5.08475 5.24166 5.24167C5.08474 5.39859 4.99659 5.61141 4.99659 5.83333C4.99659 6.05525 5.08474 6.26808 5.24166 6.425L8.82499 10L5.24166 13.575C5.16355 13.6525 5.10156 13.7446 5.05925 13.8462C5.01695 13.9477 4.99516 14.0567 4.99516 14.1667C4.99516 14.2767 5.01695 14.3856 5.05925 14.4871C5.10156 14.5887 5.16355 14.6809 5.24166 14.7583C5.31913 14.8364 5.4113 14.8984 5.51285 14.9407C5.6144 14.983 5.72332 15.0048 5.83333 15.0048C5.94334 15.0048 6.05226 14.983 6.15381 14.9407C6.25536 14.8984 6.34753 14.8364 6.42499 14.7583L9.99999 11.175L13.575 14.7583C13.6525 14.8364 13.7446 14.8984 13.8462 14.9407C13.9477 14.983 14.0566 15.0048 14.1667 15.0048C14.2767 15.0048 14.3856 14.983 14.4871 14.9407C14.5887 14.8984 14.6809 14.8364 14.7583 14.7583C14.8364 14.6809 14.8984 14.5887 14.9407 14.4871C14.983 14.3856 15.0048 14.2767 15.0048 14.1667C15.0048 14.0567 14.983 13.9477 14.9407 13.8462C14.8984 13.7446 14.8364 13.6525 14.7583 13.575L11.175 10Z" fill="#47366C" fill-opacity="0.85"/>
</svg>
