<?xml version="1.0" encoding="utf-8"?>
<!-- Generator: Adobe Illustrator 24.3.0, SVG Export Plug-In . SVG Version: 6.00 Build 0)  -->
<svg version="1.1" id="Слой_1" xmlns="http://www.w3.org/2000/svg" xmlns:xlink="http://www.w3.org/1999/xlink" x="0px" y="0px"
	 viewBox="0 0 226 113" style="enable-background:new 0 0 226 113;" xml:space="preserve">
<style type="text/css">
	.st0{fill-rule:evenodd;clip-rule:evenodd;fill:#FFFFFF;}
	.st1{fill-rule:evenodd;clip-rule:evenodd;fill:#FDD95B;}
	.st2{fill-rule:evenodd;clip-rule:evenodd;fill:#47356C;}
	.st3{fill:#47356C;}
</style>
<g id="Слой_2_1_">
	<path class="st0" d="M113,113h113V0H113V113z"/>
	<path class="st1" d="M0,113h113V0H0V113z"/>
</g>
<g id="Назва">
	<path class="st2" d="M47,62.2h4.3V47.4H47V62.2z"/>
	<path class="st2" d="M27.5,62.3h4.4v-15h-4.4V62.3z"/>
	<path class="st2" d="M37.3,62.2h4.3V47.4h-4.3V62.2z"/>
	<path class="st2" d="M39.8,51h8.1v-3.7h-8.1C39.8,47.3,39.8,51,39.8,51z"/>
	<path class="st2" d="M74,56.3v-3h10.9v0.2C85,54.3,85,55.2,85,56v0.2L74,56.3L74,56.3z"/>
	<path class="st2" d="M78.6,62.5c-1.5,0-3-0.3-4.3-1c-2.5-1.3-4-3.9-3.8-6.7c-0.1-2.1,0.8-4.2,2.3-5.7c1.4-1.3,3.2-2,5.1-2H78
		c1.8,0,3.5,0.6,4.8,1.8c1.5,1.4,2.3,3.4,2.3,5.4v0.3l-4.3,0.1v-0.3c0-2.2-1-3.6-2.8-3.6h-0.1c-2,0-3.1,2.1-3.1,4
		c0,2.1,1.7,3.8,3.7,3.9c1.9,0,3.8-0.4,5.6-1.3v3.8C82.4,62.2,80.5,62.6,78.6,62.5"/>
	<path class="st3" d="M60.6,62.5c-1.2,0-2.3-0.2-3.2-0.6s-1.7-1-2.2-1.7s-0.8-1.6-0.8-2.5h4.2c0,0.3,0.1,0.6,0.3,0.8
		s0.4,0.4,0.7,0.5s0.7,0.2,1.1,0.2c0.4,0,0.7-0.1,1-0.2c0.3-0.1,0.5-0.3,0.7-0.6c0.2-0.2,0.2-0.5,0.2-0.8s-0.1-0.6-0.3-0.8
		s-0.5-0.4-0.8-0.6C61.2,56,60.8,56,60.4,56h-1.6v-2.9h1.6c0.4,0,0.8-0.1,1.1-0.2c0.3-0.1,0.6-0.3,0.7-0.6c0.2-0.2,0.3-0.5,0.3-0.8
		s-0.1-0.6-0.2-0.8c-0.1-0.2-0.4-0.4-0.6-0.5c-0.4-0.1-0.7-0.2-1-0.2c-0.4,0-0.7,0.1-1,0.2s-0.5,0.3-0.7,0.6
		c-0.2,0.2-0.3,0.5-0.3,0.8h-4c0-0.9,0.3-1.8,0.8-2.5s1.2-1.3,2.1-1.7c0.9-0.4,1.9-0.6,3.1-0.6c1.1,0,2.1,0.2,3,0.6s1.5,0.9,2,1.6
		c0.5,0.7,0.7,1.4,0.7,2.3c0,0.9-0.3,1.6-0.9,2.1s-1.3,0.9-2.3,1v0.1c1.2,0.1,2.2,0.5,2.8,1.1s1,1.4,1,2.3s-0.3,1.7-0.8,2.4
		s-1.3,1.2-2.2,1.6S61.9,62.5,60.6,62.5z"/>
</g>
<g transform="translate(49.682 46.519)">
	<path class="st1" d="M159.2,3h-10.9v3h3.7v7.3h3.5V6h3.8V3H159.2z"/>
	<path class="st1" d="M117.5,3h-3.7v3h3.7v7.3h3.5V6h3.8V3H117.5z"/>
	<path class="st1" d="M143.1,13.2h3.5V3h-3.5V13.2z"/>
	<path class="st1" d="M131.1,10.1c-1.1-0.2-1.9-1.3-1.7-2.4s1.3-1.9,2.4-1.7c1,0.2,1.7,1,1.7,2C133.3,9.3,132.3,10.1,131.1,10.1
		 M131.1,2.8c-3.3,0-5.8,2.2-5.8,5.2v0.1v0.1c0,3,2.5,5.2,5.8,5.2s5.8-2.2,5.8-5.2V8.1V8C136.9,5,134.4,2.8,131.1,2.8"/>
	<path class="st1" d="M104.1,10.1c-1.2,0.1-2.1-0.8-2.2-1.9l0,0l0,0c0.1-1.1,1.1-2,2.2-1.9c1.3,0,2.5,0.6,2.5,2
		C106.5,9.5,105.4,10.1,104.1,10.1 M105.1,3c-1.2,0-2.4,0.4-3.3,1.2V3h-3.5v13.5h3.5v-4.4c0.9,0.7,1.9,1.2,3.1,1.2
		c2.8,0.1,5-2.1,5.1-4.8c0-0.1,0-0.2,0-0.4c0.2-2.6-1.8-4.9-4.5-5.1C105.4,3,105.3,3,105.1,3"/>
	<path class="st1" d="M93,6.3c0,1.7,0.2,3.6-2.2,3.8c-2.4-0.2-2.1-2-2.1-3.8V3h-3.5v3.4c0,1.9-0.1,6.8,5.6,7c5.7-0.2,5.7-5,5.7-7V3
		H93V6.3z"/>
</g>
</svg>
